<svg xmlns="http://www.w3.org/2000/svg" viewBox="0 0 528 704" role="img" aria-label="Crash">
  <defs>
    <linearGradient id="bg" x1="0" y1="0" x2="1" y2="1">
      <stop offset="0%" stop-color="#12333a"/>
      <stop offset="48%" stop-color="#0b1618"/>
      <stop offset="100%" stop-color="#070d0d"/>
    </linearGradient>
    <radialGradient id="glow" cx="58%" cy="38%" r="48%">
      <stop offset="0%" stop-color="#4ade80" stop-opacity="0.32"/>
      <stop offset="100%" stop-color="#4ade80" stop-opacity="0"/>
    </radialGradient>
    <linearGradient id="line" x1="0" y1="1" x2="1" y2="0">
      <stop offset="0%" stop-color="#166534"/>
      <stop offset="55%" stop-color="#4ade80"/>
      <stop offset="100%" stop-color="#d9f99d"/>
    </linearGradient>
    <linearGradient id="fill" x1="0" y1="1" x2="0" y2="0">
      <stop offset="0%" stop-color="#4ade80" stop-opacity="0"/>
      <stop offset="100%" stop-color="#4ade80" stop-opacity="0.28"/>
    </linearGradient>
  </defs>
  <rect width="528" height="704" fill="url(#bg)"/>
  <rect width="528" height="704" fill="url(#glow)"/>
  <g transform="translate(48 88)">
    <rect width="432" height="360" rx="18" fill="#071111" stroke="#1d3a3a" stroke-width="4"/>
    <path d="M28 318 C 90 312, 120 286, 168 240 C 220 188, 248 150, 300 108 C 348 72, 372 48, 404 28 L 404 332 L 28 332 Z" fill="url(#fill)"/>
    <path d="M28 318 C 90 312, 120 286, 168 240 C 220 188, 248 150, 300 108 C 348 72, 372 48, 404 28" fill="none" stroke="url(#line)" stroke-width="10" stroke-linecap="round"/>
    <circle cx="404" cy="28" r="14" fill="#4ade80" stroke="#ecfccb" stroke-width="3"/>
    <text x="214" y="188" text-anchor="middle" fill="#f8fafc" font-family="ui-monospace, monospace" font-size="52" font-weight="800">2.47×</text>
  </g>
  <text x="264" y="520" text-anchor="middle" fill="#ecfccb" font-family="Outfit, sans-serif" font-size="48" font-weight="700" letter-spacing="6">CRASH</text>
  <text x="264" y="556" text-anchor="middle" fill="#67e8f9" font-family="Outfit, sans-serif" font-size="16" letter-spacing="5">SEEDBET ORIGINALS</text>
</svg>
